<mxfile host="app.diagrams.net" modified="2023-04-27T08:34:04.544Z" agent="Mozilla/5.0 (Windows NT 10.0; WOW64) AppleWebKit/537.36 (KHTML, like Gecko) Chrome/86.0.4240.198 Safari/537.36" etag="NNJSCB9IBEWiyFIwNv-e" version="21.2.3" type="github">
  <diagram name="Page-1" id="c7558073-3199-34d8-9f00-42111426c3f3">
    <mxGraphModel dx="1195" dy="581" grid="1" gridSize="10" guides="1" tooltips="1" connect="1" arrows="1" fold="1" page="1" pageScale="1" pageWidth="826" pageHeight="1169" background="none" math="0" shadow="0">
      <root>
        <mxCell id="0" />
        <mxCell id="1" parent="0" />
        <mxCell id="BiU6kGiyk8U7t8k7pdQM-96" value="&lt;font style=&quot;font-size: 14px;&quot;&gt;Listener&lt;/font&gt;" style="rounded=0;whiteSpace=wrap;html=1;fillColor=#d5e8d4;strokeColor=#82b366;" vertex="1" parent="1">
          <mxGeometry x="340" y="200" width="120" height="60" as="geometry" />
        </mxCell>
        <mxCell id="BiU6kGiyk8U7t8k7pdQM-97" value="&lt;font style=&quot;font-size: 14px;&quot;&gt;JobDetail&lt;/font&gt;" style="rounded=0;whiteSpace=wrap;html=1;fillColor=#d5e8d4;strokeColor=#82b366;" vertex="1" parent="1">
          <mxGeometry x="140" y="280" width="120" height="60" as="geometry" />
        </mxCell>
        <mxCell id="BiU6kGiyk8U7t8k7pdQM-98" value="&lt;font style=&quot;font-size: 14px;&quot;&gt;Trigger&lt;/font&gt;" style="rounded=0;whiteSpace=wrap;html=1;fillColor=#d5e8d4;strokeColor=#82b366;" vertex="1" parent="1">
          <mxGeometry x="540" y="280" width="120" height="60" as="geometry" />
        </mxCell>
        <mxCell id="BiU6kGiyk8U7t8k7pdQM-102" value="&lt;font style=&quot;font-size: 14px;&quot;&gt;Scheduler&lt;/font&gt;" style="rounded=0;whiteSpace=wrap;html=1;fillColor=#d5e8d4;strokeColor=#82b366;" vertex="1" parent="1">
          <mxGeometry x="340" y="380" width="120" height="60" as="geometry" />
        </mxCell>
        <mxCell id="BiU6kGiyk8U7t8k7pdQM-108" value="&lt;font style=&quot;font-size: 14px;&quot;&gt;SchedulerFactory&lt;/font&gt;" style="rounded=0;whiteSpace=wrap;html=1;fillColor=#FF6666;strokeColor=#b85450;" vertex="1" parent="1">
          <mxGeometry x="80" y="380" width="180" height="60" as="geometry" />
        </mxCell>
        <mxCell id="BiU6kGiyk8U7t8k7pdQM-109" value="&lt;font style=&quot;font-size: 14px;&quot;&gt;JobBuilder&lt;br&gt;&lt;br&gt;&lt;br&gt;&lt;br&gt;&lt;br&gt;&lt;br&gt;&lt;br&gt;&lt;br&gt;&lt;br&gt;&lt;br&gt;&lt;/font&gt;" style="rounded=0;whiteSpace=wrap;html=1;fillColor=#FF6666;strokeColor=#b85450;" vertex="1" parent="1">
          <mxGeometry x="100" y="40" width="180" height="200" as="geometry" />
        </mxCell>
        <mxCell id="BiU6kGiyk8U7t8k7pdQM-110" value="&lt;font style=&quot;font-size: 14px;&quot;&gt;Job&lt;/font&gt;" style="rounded=0;whiteSpace=wrap;html=1;fillColor=#FF9933;strokeColor=#d79b00;" vertex="1" parent="1">
          <mxGeometry x="130" y="170" width="120" height="50" as="geometry" />
        </mxCell>
        <mxCell id="BiU6kGiyk8U7t8k7pdQM-111" value="&lt;font style=&quot;font-size: 14px;&quot;&gt;JobDataMap&lt;/font&gt;" style="rounded=0;whiteSpace=wrap;html=1;fillColor=#FF9933;strokeColor=#d79b00;" vertex="1" parent="1">
          <mxGeometry x="130" y="100" width="120" height="50" as="geometry" />
        </mxCell>
        <mxCell id="BiU6kGiyk8U7t8k7pdQM-112" value="&lt;font style=&quot;font-size: 14px;&quot;&gt;TriggerBuilder&lt;br&gt;&lt;br&gt;&lt;br&gt;&lt;br&gt;&lt;br&gt;&lt;br&gt;&lt;br&gt;&lt;br&gt;&lt;br&gt;&lt;br&gt;&lt;/font&gt;" style="rounded=0;whiteSpace=wrap;html=1;fillColor=#FF6666;strokeColor=#b85450;" vertex="1" parent="1">
          <mxGeometry x="520" y="40" width="180" height="200" as="geometry" />
        </mxCell>
        <mxCell id="BiU6kGiyk8U7t8k7pdQM-113" value="&lt;font style=&quot;font-size: 14px;&quot;&gt;SchedulerBuilder&lt;/font&gt;" style="rounded=0;whiteSpace=wrap;html=1;fillColor=#FF9933;strokeColor=#d79b00;" vertex="1" parent="1">
          <mxGeometry x="550" y="170" width="120" height="50" as="geometry" />
        </mxCell>
        <mxCell id="BiU6kGiyk8U7t8k7pdQM-114" value="&lt;font style=&quot;font-size: 14px;&quot;&gt;JobDataMap&lt;/font&gt;" style="rounded=0;whiteSpace=wrap;html=1;fillColor=#FF9933;strokeColor=#d79b00;" vertex="1" parent="1">
          <mxGeometry x="550" y="100" width="120" height="50" as="geometry" />
        </mxCell>
        <mxCell id="BiU6kGiyk8U7t8k7pdQM-115" value="" style="endArrow=classic;html=1;rounded=0;strokeColor=#0000CC;entryX=0.488;entryY=0.002;entryDx=0;entryDy=0;exitX=0.55;exitY=0.995;exitDx=0;exitDy=0;exitPerimeter=0;strokeWidth=3;entryPerimeter=0;" edge="1" parent="1" source="BiU6kGiyk8U7t8k7pdQM-109" target="BiU6kGiyk8U7t8k7pdQM-97">
          <mxGeometry width="50" height="50" relative="1" as="geometry">
            <mxPoint x="20" y="290" as="sourcePoint" />
            <mxPoint x="70" y="240" as="targetPoint" />
          </mxGeometry>
        </mxCell>
        <mxCell id="BiU6kGiyk8U7t8k7pdQM-116" value="" style="endArrow=classic;html=1;rounded=0;strokeColor=#0000CC;exitX=0.462;exitY=0.999;exitDx=0;exitDy=0;strokeWidth=3;exitPerimeter=0;entryX=0.527;entryY=0.001;entryDx=0;entryDy=0;entryPerimeter=0;" edge="1" parent="1" source="BiU6kGiyk8U7t8k7pdQM-112" target="BiU6kGiyk8U7t8k7pdQM-98">
          <mxGeometry width="50" height="50" relative="1" as="geometry">
            <mxPoint x="209" y="249" as="sourcePoint" />
            <mxPoint x="210" y="290" as="targetPoint" />
          </mxGeometry>
        </mxCell>
        <mxCell id="BiU6kGiyk8U7t8k7pdQM-117" value="&lt;font style=&quot;font-size: 14px;&quot;&gt;RemoteScheduler&lt;/font&gt;" style="rounded=0;whiteSpace=wrap;html=1;fillColor=#FFFF33;strokeColor=#d6b656;" vertex="1" parent="1">
          <mxGeometry x="480" y="380" width="120" height="30" as="geometry" />
        </mxCell>
        <mxCell id="BiU6kGiyk8U7t8k7pdQM-118" value="&lt;font style=&quot;font-size: 14px;&quot;&gt;StdScheduler&lt;/font&gt;" style="rounded=0;whiteSpace=wrap;html=1;fillColor=#FFFF33;strokeColor=#d6b656;" vertex="1" parent="1">
          <mxGeometry x="480" y="420" width="120" height="30" as="geometry" />
        </mxCell>
        <mxCell id="BiU6kGiyk8U7t8k7pdQM-119" value="" style="endArrow=classic;html=1;rounded=0;strokeColor=#000000;entryX=1;entryY=0.5;entryDx=0;entryDy=0;strokeWidth=3;exitX=0.5;exitY=1;exitDx=0;exitDy=0;" edge="1" parent="1" source="BiU6kGiyk8U7t8k7pdQM-96" target="BiU6kGiyk8U7t8k7pdQM-97">
          <mxGeometry width="50" height="50" relative="1" as="geometry">
            <mxPoint x="401" y="320" as="sourcePoint" />
            <mxPoint x="300" y="330" as="targetPoint" />
          </mxGeometry>
        </mxCell>
        <mxCell id="BiU6kGiyk8U7t8k7pdQM-120" value="" style="endArrow=classic;html=1;rounded=0;strokeColor=#000000;entryX=0;entryY=0.5;entryDx=0;entryDy=0;strokeWidth=3;exitX=0.5;exitY=1;exitDx=0;exitDy=0;" edge="1" parent="1" source="BiU6kGiyk8U7t8k7pdQM-96" target="BiU6kGiyk8U7t8k7pdQM-98">
          <mxGeometry width="50" height="50" relative="1" as="geometry">
            <mxPoint x="380" y="270" as="sourcePoint" />
            <mxPoint x="270" y="320" as="targetPoint" />
          </mxGeometry>
        </mxCell>
        <mxCell id="BiU6kGiyk8U7t8k7pdQM-121" value="" style="endArrow=classic;html=1;rounded=0;strokeColor=#000000;entryX=0.5;entryY=0;entryDx=0;entryDy=0;strokeWidth=3;exitX=0.5;exitY=1;exitDx=0;exitDy=0;" edge="1" parent="1" source="BiU6kGiyk8U7t8k7pdQM-96" target="BiU6kGiyk8U7t8k7pdQM-102">
          <mxGeometry width="50" height="50" relative="1" as="geometry">
            <mxPoint x="410" y="270" as="sourcePoint" />
            <mxPoint x="550" y="320" as="targetPoint" />
          </mxGeometry>
        </mxCell>
        <mxCell id="BiU6kGiyk8U7t8k7pdQM-122" value="" style="endArrow=classic;html=1;rounded=0;strokeColor=#0000CC;entryX=0;entryY=0.5;entryDx=0;entryDy=0;exitX=1;exitY=0.5;exitDx=0;exitDy=0;strokeWidth=3;" edge="1" parent="1" source="BiU6kGiyk8U7t8k7pdQM-108" target="BiU6kGiyk8U7t8k7pdQM-102">
          <mxGeometry width="50" height="50" relative="1" as="geometry">
            <mxPoint x="209" y="249" as="sourcePoint" />
            <mxPoint x="209" y="290" as="targetPoint" />
          </mxGeometry>
        </mxCell>
        <mxCell id="BiU6kGiyk8U7t8k7pdQM-123" value="&lt;font style=&quot;font-size: 14px;&quot;&gt;SimpleTrigger&lt;/font&gt;" style="rounded=0;whiteSpace=wrap;html=1;fillColor=#FFFF33;strokeColor=#d6b656;" vertex="1" parent="1">
          <mxGeometry x="680" y="280" width="120" height="30" as="geometry" />
        </mxCell>
        <mxCell id="BiU6kGiyk8U7t8k7pdQM-124" value="&lt;font style=&quot;font-size: 14px;&quot;&gt;CronTrigger&lt;/font&gt;" style="rounded=0;whiteSpace=wrap;html=1;fillColor=#FFFF33;strokeColor=#d6b656;" vertex="1" parent="1">
          <mxGeometry x="680" y="320" width="120" height="30" as="geometry" />
        </mxCell>
        <mxCell id="BiU6kGiyk8U7t8k7pdQM-125" value="&lt;font style=&quot;font-size: 14px;&quot;&gt;DailyTimelntervalTrigger&lt;/font&gt;" style="rounded=0;whiteSpace=wrap;html=1;fillColor=#FFFF33;strokeColor=#d6b656;" vertex="1" parent="1">
          <mxGeometry x="680" y="360" width="170" height="30" as="geometry" />
        </mxCell>
        <mxCell id="BiU6kGiyk8U7t8k7pdQM-126" value="&lt;font style=&quot;font-size: 14px;&quot;&gt;CalendarlntervalTrigger&lt;/font&gt;" style="rounded=0;whiteSpace=wrap;html=1;fillColor=#FFFF33;strokeColor=#d6b656;" vertex="1" parent="1">
          <mxGeometry x="680" y="400" width="170" height="30" as="geometry" />
        </mxCell>
        <mxCell id="BiU6kGiyk8U7t8k7pdQM-127" value="" style="endArrow=classic;html=1;rounded=0;strokeColor=#7F00FF;entryX=0.5;entryY=0;entryDx=0;entryDy=0;strokeWidth=3;exitX=0.5;exitY=1;exitDx=0;exitDy=0;dashed=1;" edge="1" parent="1" source="BiU6kGiyk8U7t8k7pdQM-102" target="BiU6kGiyk8U7t8k7pdQM-103">
          <mxGeometry width="50" height="50" relative="1" as="geometry">
            <mxPoint x="410" y="270" as="sourcePoint" />
            <mxPoint x="270" y="320" as="targetPoint" />
          </mxGeometry>
        </mxCell>
        <mxCell id="BiU6kGiyk8U7t8k7pdQM-128" value="" style="endArrow=classic;html=1;rounded=0;strokeColor=#7F00FF;entryX=0.5;entryY=0;entryDx=0;entryDy=0;strokeWidth=3;exitX=0.5;exitY=1;exitDx=0;exitDy=0;dashed=1;" edge="1" parent="1" source="BiU6kGiyk8U7t8k7pdQM-102" target="BiU6kGiyk8U7t8k7pdQM-104">
          <mxGeometry width="50" height="50" relative="1" as="geometry">
            <mxPoint x="410" y="450" as="sourcePoint" />
            <mxPoint x="305" y="510" as="targetPoint" />
          </mxGeometry>
        </mxCell>
        <mxCell id="BiU6kGiyk8U7t8k7pdQM-129" value="" style="endArrow=classic;html=1;rounded=0;strokeColor=#7F00FF;entryX=0.5;entryY=0;entryDx=0;entryDy=0;strokeWidth=3;dashed=1;" edge="1" parent="1" target="BiU6kGiyk8U7t8k7pdQM-105">
          <mxGeometry width="50" height="50" relative="1" as="geometry">
            <mxPoint x="400" y="440" as="sourcePoint" />
            <mxPoint x="315" y="520" as="targetPoint" />
          </mxGeometry>
        </mxCell>
        <mxCell id="BiU6kGiyk8U7t8k7pdQM-130" value="" style="endArrow=classic;html=1;rounded=0;strokeColor=#7F00FF;entryX=0.5;entryY=0;entryDx=0;entryDy=0;strokeWidth=3;dashed=1;" edge="1" parent="1" target="BiU6kGiyk8U7t8k7pdQM-106">
          <mxGeometry width="50" height="50" relative="1" as="geometry">
            <mxPoint x="400" y="440" as="sourcePoint" />
            <mxPoint x="325" y="530" as="targetPoint" />
          </mxGeometry>
        </mxCell>
        <mxCell id="BiU6kGiyk8U7t8k7pdQM-103" value="start" style="ellipse;whiteSpace=wrap;html=1;aspect=fixed;fillColor=#d5e8d4;strokeColor=#82b366;" vertex="1" parent="1">
          <mxGeometry x="220" y="515" width="50" height="50" as="geometry" />
        </mxCell>
        <mxCell id="BiU6kGiyk8U7t8k7pdQM-104" value="stop" style="ellipse;whiteSpace=wrap;html=1;aspect=fixed;fillColor=#d5e8d4;strokeColor=#82b366;" vertex="1" parent="1">
          <mxGeometry x="310" y="515" width="50" height="50" as="geometry" />
        </mxCell>
        <mxCell id="BiU6kGiyk8U7t8k7pdQM-105" value="pause" style="ellipse;whiteSpace=wrap;html=1;aspect=fixed;fillColor=#d5e8d4;strokeColor=#82b366;" vertex="1" parent="1">
          <mxGeometry x="413" y="515" width="50" height="50" as="geometry" />
        </mxCell>
        <mxCell id="BiU6kGiyk8U7t8k7pdQM-106" value="resume" style="ellipse;whiteSpace=wrap;html=1;aspect=fixed;fillColor=#d5e8d4;strokeColor=#82b366;" vertex="1" parent="1">
          <mxGeometry x="515" y="515" width="50" height="50" as="geometry" />
        </mxCell>
        <mxCell id="BiU6kGiyk8U7t8k7pdQM-131" value="" style="endArrow=classic;html=1;rounded=0;strokeColor=#FF0000;entryX=0.5;entryY=0;entryDx=0;entryDy=0;strokeWidth=3;exitX=1;exitY=0.5;exitDx=0;exitDy=0;dashed=1;" edge="1" parent="1" source="BiU6kGiyk8U7t8k7pdQM-97" target="BiU6kGiyk8U7t8k7pdQM-102">
          <mxGeometry width="50" height="50" relative="1" as="geometry">
            <mxPoint x="410" y="270" as="sourcePoint" />
            <mxPoint x="270" y="320" as="targetPoint" />
          </mxGeometry>
        </mxCell>
        <mxCell id="BiU6kGiyk8U7t8k7pdQM-132" value="" style="endArrow=classic;html=1;rounded=0;strokeColor=#FF0000;entryX=0.5;entryY=0;entryDx=0;entryDy=0;strokeWidth=3;exitX=0;exitY=0.5;exitDx=0;exitDy=0;dashed=1;" edge="1" parent="1" source="BiU6kGiyk8U7t8k7pdQM-98" target="BiU6kGiyk8U7t8k7pdQM-102">
          <mxGeometry width="50" height="50" relative="1" as="geometry">
            <mxPoint x="270" y="320" as="sourcePoint" />
            <mxPoint x="410" y="390" as="targetPoint" />
          </mxGeometry>
        </mxCell>
        <mxCell id="BiU6kGiyk8U7t8k7pdQM-133" value="&lt;font style=&quot;font-size: 14px;&quot;&gt;CalendarlntervalScheduleBuilder&lt;/font&gt;" style="rounded=0;whiteSpace=wrap;html=1;fillColor=#FFFF33;strokeColor=#d6b656;" vertex="1" parent="1">
          <mxGeometry x="741" y="40" width="240" height="30" as="geometry" />
        </mxCell>
        <mxCell id="BiU6kGiyk8U7t8k7pdQM-134" value="&lt;font style=&quot;font-size: 14px;&quot;&gt;CronScheduleBuilder&lt;/font&gt;" style="rounded=0;whiteSpace=wrap;html=1;fillColor=#FFFF33;strokeColor=#d6b656;" vertex="1" parent="1">
          <mxGeometry x="741" y="80" width="240" height="30" as="geometry" />
        </mxCell>
        <mxCell id="BiU6kGiyk8U7t8k7pdQM-135" value="&lt;font style=&quot;font-size: 14px;&quot;&gt;DailyTimelntervalScheduleBuilder&lt;/font&gt;" style="rounded=0;whiteSpace=wrap;html=1;fillColor=#FFFF33;strokeColor=#d6b656;" vertex="1" parent="1">
          <mxGeometry x="741" y="120" width="240" height="30" as="geometry" />
        </mxCell>
        <mxCell id="BiU6kGiyk8U7t8k7pdQM-136" value="&lt;font style=&quot;font-size: 14px;&quot;&gt;SimpleScheduleBuilder&lt;/font&gt;" style="rounded=0;whiteSpace=wrap;html=1;fillColor=#FFFF33;strokeColor=#d6b656;" vertex="1" parent="1">
          <mxGeometry x="741" y="160" width="240" height="30" as="geometry" />
        </mxCell>
        <mxCell id="BiU6kGiyk8U7t8k7pdQM-137" value="" style="endArrow=classic;html=1;rounded=0;strokeColor=#000000;entryX=0;entryY=0.5;entryDx=0;entryDy=0;strokeWidth=1;exitX=1;exitY=0.5;exitDx=0;exitDy=0;dashed=1;" edge="1" parent="1" source="BiU6kGiyk8U7t8k7pdQM-113" target="BiU6kGiyk8U7t8k7pdQM-133">
          <mxGeometry width="50" height="50" relative="1" as="geometry">
            <mxPoint x="840" y="270" as="sourcePoint" />
            <mxPoint x="980" y="320" as="targetPoint" />
          </mxGeometry>
        </mxCell>
        <mxCell id="BiU6kGiyk8U7t8k7pdQM-138" value="" style="endArrow=classic;html=1;rounded=0;strokeColor=#000000;entryX=0;entryY=0.5;entryDx=0;entryDy=0;strokeWidth=1;exitX=1;exitY=0.5;exitDx=0;exitDy=0;dashed=1;" edge="1" parent="1" source="BiU6kGiyk8U7t8k7pdQM-113" target="BiU6kGiyk8U7t8k7pdQM-134">
          <mxGeometry width="50" height="50" relative="1" as="geometry">
            <mxPoint x="680" y="205" as="sourcePoint" />
            <mxPoint x="751" y="115" as="targetPoint" />
          </mxGeometry>
        </mxCell>
        <mxCell id="BiU6kGiyk8U7t8k7pdQM-139" value="" style="endArrow=classic;html=1;rounded=0;strokeColor=#000000;entryX=0;entryY=0.5;entryDx=0;entryDy=0;strokeWidth=1;exitX=1;exitY=0.5;exitDx=0;exitDy=0;dashed=1;" edge="1" parent="1" source="BiU6kGiyk8U7t8k7pdQM-113" target="BiU6kGiyk8U7t8k7pdQM-135">
          <mxGeometry width="50" height="50" relative="1" as="geometry">
            <mxPoint x="690" y="215" as="sourcePoint" />
            <mxPoint x="761" y="125" as="targetPoint" />
          </mxGeometry>
        </mxCell>
        <mxCell id="BiU6kGiyk8U7t8k7pdQM-140" value="" style="endArrow=classic;html=1;rounded=0;strokeColor=#000000;entryX=0;entryY=0.5;entryDx=0;entryDy=0;strokeWidth=1;exitX=1;exitY=0.5;exitDx=0;exitDy=0;dashed=1;" edge="1" parent="1" source="BiU6kGiyk8U7t8k7pdQM-113" target="BiU6kGiyk8U7t8k7pdQM-136">
          <mxGeometry width="50" height="50" relative="1" as="geometry">
            <mxPoint x="700" y="225" as="sourcePoint" />
            <mxPoint x="771" y="135" as="targetPoint" />
          </mxGeometry>
        </mxCell>
      </root>
    </mxGraphModel>
  </diagram>
</mxfile>
